<svg width="76" height="75" viewBox="0 0 76 75" fill="none" xmlns="http://www.w3.org/2000/svg">
<rect x="0.833313" width="75" height="75" rx="8" fill="#912054"/>
<path d="M38.3333 51C41.3258 50.9998 44.2335 50.0058 46.5999 48.174C48.9662 46.3423 50.6572 43.7765 51.4073 40.8795M38.3333 51C35.3408 50.9998 32.4331 50.0058 30.0668 48.174C27.7004 46.3423 26.0094 43.7765 25.2593 40.8795M38.3333 51C42.0608 51 45.0833 44.955 45.0833 37.5C45.0833 30.045 42.0608 24 38.3333 24M38.3333 51C34.6058 51 31.5833 44.955 31.5833 37.5C31.5833 30.045 34.6058 24 38.3333 24M51.4073 40.8795C51.6848 39.7995 51.8333 38.667 51.8333 37.5C51.837 35.1782 51.2391 32.895 50.0978 30.873M51.4073 40.8795C47.4071 43.0971 42.9071 44.2572 38.3333 44.25C33.5903 44.25 29.1338 43.0275 25.2593 40.8795M25.2593 40.8795C24.9754 39.7755 24.8323 38.64 24.8333 37.5C24.8333 35.0925 25.4633 32.8305 26.5688 30.873M38.3333 24C40.7277 23.999 43.0792 24.635 45.1466 25.8428C47.214 27.0507 48.9229 28.7868 50.0978 30.873M38.3333 24C35.939 23.999 33.5874 24.635 31.52 25.8428C29.4526 27.0507 27.7438 28.7868 26.5688 30.873M50.0978 30.873C46.8318 33.7019 42.6541 35.2562 38.3333 35.25C33.8363 35.25 29.7233 33.6 26.5688 30.873" stroke="white" stroke-linecap="round" stroke-linejoin="round"/>
</svg>
