<svg width="76" height="75" viewBox="0 0 76 75" fill="none" xmlns="http://www.w3.org/2000/svg">
<rect x="0.833313" width="75" height="75" rx="8" fill="#912054"/>
<path d="M50.7083 32.2665C52.0343 32.6925 52.9583 33.9585 52.9583 35.412V41.841C52.9583 43.545 51.6878 44.991 49.9883 45.1305C49.4783 45.171 48.9683 45.2085 48.4583 45.2385V49.875L43.9583 45.375C41.9273 45.375 39.9173 45.2925 37.9283 45.1305C37.4953 45.0955 37.0741 44.972 36.6908 44.7675M50.7083 32.2665C50.4765 32.1919 50.237 32.1441 49.9943 32.124C45.9772 31.7905 41.9394 31.7905 37.9223 32.124C36.2258 32.265 34.9583 33.7095 34.9583 35.412V41.841C34.9583 43.0965 35.6483 44.211 36.6908 44.7675M50.7083 32.2665V29.4555C50.7083 27.024 48.9803 24.9165 46.5683 24.603C43.4645 24.2007 40.338 23.9993 37.2083 24C34.0358 24 30.9113 24.2055 27.8483 24.603C25.4363 24.9165 23.7083 27.024 23.7083 29.4555V38.7945C23.7083 41.226 25.4363 43.3335 27.8483 43.647C28.7138 43.7595 29.5838 43.857 30.4583 43.938V51L36.6908 44.7675" stroke="white" stroke-linecap="round" stroke-linejoin="round"/>
</svg>
