<svg width="70" height="71" viewBox="0 0 70 71" fill="none" xmlns="http://www.w3.org/2000/svg">
<rect y="0.5" width="70" height="70" rx="8" fill="white"/>
<path d="M40.625 33.25V26.5C40.625 25.0082 40.0323 23.5774 38.9775 22.5225C37.9226 21.4676 36.4918 20.875 35 20.875C33.5081 20.875 32.0774 21.4676 31.0225 22.5225C29.9676 23.5774 29.375 25.0082 29.375 26.5V33.25M46.409 30.2605L48.3035 48.2605C48.4085 49.258 47.6285 50.125 46.625 50.125H23.375C23.1383 50.1253 22.9042 50.0757 22.6879 49.9796C22.4716 49.8835 22.278 49.7429 22.1195 49.5671C21.9611 49.3913 21.8414 49.1841 21.7683 48.959C21.6951 48.7339 21.6702 48.4959 21.695 48.2605L23.591 30.2605C23.6347 29.8458 23.8304 29.4621 24.1404 29.1831C24.4503 28.9042 24.8525 28.7499 25.2695 28.75H44.7305C45.5945 28.75 46.319 29.4025 46.409 30.2605ZM29.9375 33.25C29.9375 33.3992 29.8782 33.5423 29.7727 33.6477C29.6672 33.7532 29.5242 33.8125 29.375 33.8125C29.2258 33.8125 29.0827 33.7532 28.9772 33.6477C28.8717 33.5423 28.8125 33.3992 28.8125 33.25C28.8125 33.1008 28.8717 32.9577 28.9772 32.8523C29.0827 32.7468 29.2258 32.6875 29.375 32.6875C29.5242 32.6875 29.6672 32.7468 29.7727 32.8523C29.8782 32.9577 29.9375 33.1008 29.9375 33.25ZM41.1875 33.25C41.1875 33.3992 41.1282 33.5423 41.0227 33.6477C40.9172 33.7532 40.7742 33.8125 40.625 33.8125C40.4758 33.8125 40.3327 33.7532 40.2272 33.6477C40.1217 33.5423 40.0625 33.3992 40.0625 33.25C40.0625 33.1008 40.1217 32.9577 40.2272 32.8523C40.3327 32.7468 40.4758 32.6875 40.625 32.6875C40.7742 32.6875 40.9172 32.7468 41.0227 32.8523C41.1282 32.9577 41.1875 33.1008 41.1875 33.25Z" stroke="#201F1F" stroke-linecap="round" stroke-linejoin="round"/>
</svg>
