<svg width="76" height="75" viewBox="0 0 76 75" fill="none" xmlns="http://www.w3.org/2000/svg">
<rect x="0.833313" width="75" height="75" rx="8" fill="#912054"/>
<path d="M45.9218 42.7815C46.6235 42.3023 47.4465 42.0316 48.2956 42.0007C49.1448 41.9697 49.9853 42.1798 50.72 42.6066C51.4547 43.0335 52.0536 43.6596 52.4473 44.4126C52.841 45.1655 53.0135 46.0146 52.9448 46.8615C51.1451 47.4905 49.2334 47.7353 47.3333 47.58C47.3275 45.8799 46.8379 44.2151 45.9218 42.783C45.1086 41.5077 43.987 40.4581 42.6605 39.7313C41.3341 39.0045 39.8458 38.624 38.3333 38.625C36.821 38.6242 35.333 39.0048 34.0069 39.7316C32.6807 40.4584 31.5593 41.5079 30.7463 42.783M47.3318 47.5785L47.3333 47.625C47.3333 47.9625 47.3153 48.2955 47.2778 48.624C44.5558 50.1857 41.4714 51.005 38.3333 51C35.0783 51 32.0228 50.136 29.3888 48.624C29.3502 48.2769 29.3317 47.9278 29.3333 47.5785M29.3333 47.5785C27.4337 47.7394 25.5232 47.4955 23.7248 46.863C23.6563 46.0163 23.8289 45.1676 24.2225 44.4148C24.6162 43.6621 25.2148 43.0362 25.9493 42.6094C26.6837 42.1827 27.524 41.9725 28.3729 42.0032C29.2218 42.0339 30.0446 42.3043 30.7463 42.783M29.3333 47.5785C29.3387 45.8786 29.8307 44.2153 30.7463 42.783M42.8333 29.625C42.8333 30.8185 42.3592 31.9631 41.5153 32.807C40.6714 33.6509 39.5268 34.125 38.3333 34.125C37.1398 34.125 35.9952 33.6509 35.1513 32.807C34.3074 31.9631 33.8333 30.8185 33.8333 29.625C33.8333 28.4315 34.3074 27.2869 35.1513 26.443C35.9952 25.5991 37.1398 25.125 38.3333 25.125C39.5268 25.125 40.6714 25.5991 41.5153 26.443C42.3592 27.2869 42.8333 28.4315 42.8333 29.625ZM51.8333 34.125C51.8333 34.5682 51.746 35.0071 51.5764 35.4166C51.4068 35.826 51.1582 36.1981 50.8448 36.5115C50.5314 36.8249 50.1593 37.0735 49.7498 37.2431C49.3404 37.4127 48.9015 37.5 48.4583 37.5C48.0151 37.5 47.5762 37.4127 47.1667 37.2431C46.7573 37.0735 46.3852 36.8249 46.0718 36.5115C45.7584 36.1981 45.5098 35.826 45.3402 35.4166C45.1706 35.0071 45.0833 34.5682 45.0833 34.125C45.0833 33.2299 45.4389 32.3715 46.0718 31.7385C46.7047 31.1056 47.5632 30.75 48.4583 30.75C49.3534 30.75 50.2118 31.1056 50.8448 31.7385C51.4777 32.3715 51.8333 33.2299 51.8333 34.125ZM31.5833 34.125C31.5833 34.5682 31.496 35.0071 31.3264 35.4166C31.1568 35.826 30.9082 36.1981 30.5948 36.5115C30.2814 36.8249 29.9093 37.0735 29.4998 37.2431C29.0904 37.4127 28.6515 37.5 28.2083 37.5C27.7651 37.5 27.3262 37.4127 26.9167 37.2431C26.5073 37.0735 26.1352 36.8249 25.8218 36.5115C25.5084 36.1981 25.2598 35.826 25.0902 35.4166C24.9206 35.0071 24.8333 34.5682 24.8333 34.125C24.8333 33.2299 25.1889 32.3715 25.8218 31.7385C26.4547 31.1056 27.3132 30.75 28.2083 30.75C29.1034 30.75 29.9618 31.1056 30.5948 31.7385C31.2277 32.3715 31.5833 33.2299 31.5833 34.125Z" stroke="white" stroke-linecap="round" stroke-linejoin="round"/>
</svg>
