<svg width="70" height="70" viewBox="0 0 70 70" fill="none" xmlns="http://www.w3.org/2000/svg">
<rect width="70" height="70" rx="8" fill="#F4F4F4"/>
<path d="M20.375 21.5H22.454C23.219 21.5 23.8865 22.0145 24.0845 22.7525L24.659 24.908M24.659 24.908C33.015 24.6738 41.3629 25.6027 49.463 27.668C48.227 31.349 46.7585 34.925 45.077 38.375H28.25M24.659 24.908L28.25 38.375M28.25 38.375C27.0565 38.375 25.9119 38.8491 25.068 39.693C24.2241 40.5369 23.75 41.6815 23.75 42.875H47.375M26 47.375C26 47.6734 25.8815 47.9595 25.6705 48.1705C25.4595 48.3815 25.1734 48.5 24.875 48.5C24.5766 48.5 24.2905 48.3815 24.0795 48.1705C23.8685 47.9595 23.75 47.6734 23.75 47.375C23.75 47.0766 23.8685 46.7905 24.0795 46.5795C24.2905 46.3685 24.5766 46.25 24.875 46.25C25.1734 46.25 25.4595 46.3685 25.6705 46.5795C25.8815 46.7905 26 47.0766 26 47.375ZM45.125 47.375C45.125 47.6734 45.0065 47.9595 44.7955 48.1705C44.5845 48.3815 44.2984 48.5 44 48.5C43.7016 48.5 43.4155 48.3815 43.2045 48.1705C42.9935 47.9595 42.875 47.6734 42.875 47.375C42.875 47.0766 42.9935 46.7905 43.2045 46.5795C43.4155 46.3685 43.7016 46.25 44 46.25C44.2984 46.25 44.5845 46.3685 44.7955 46.5795C45.0065 46.7905 45.125 47.0766 45.125 47.375Z" stroke="#201F1F" stroke-linecap="round" stroke-linejoin="round"/>
</svg>
