<svg width="71" height="70" viewBox="0 0 71 70" fill="none" xmlns="http://www.w3.org/2000/svg">
<rect x="0.5" width="70" height="70" rx="8" fill="#F4F4F4"/>
<path d="M42.25 24.875V27.125M42.25 32.75V26.5625C42.25 27.0018 42.25 38.375 42.25 38.375C42.25 38.375 42.25 37.6893 42.25 37.25M42.25 42.875V45.125M36.625 36.125C33.5496 36.125 28.75 36.125 28.75 36.125C28.75 36.125 34.4246 36.125 37.5 36.125M33.25 39.5C31.4926 39.5 28.75 39.5 28.75 39.5C28.75 39.5 33.7426 39.5 35.5 39.5M22.5625 24.875C21.631 24.875 20.875 25.631 20.875 26.5625V31.1015C21.5601 31.496 22.1292 32.064 22.5249 32.7484C22.9206 33.4328 23.1289 34.2094 23.1289 35C23.1289 35.7906 22.9206 36.5672 22.5249 37.2516C22.1292 37.936 21.5601 38.504 20.875 38.8985V43.4375C20.875 44.369 21.631 45.125 22.5625 45.125H48.4375C49.369 45.125 50.125 44.369 50.125 43.4375V38.8985C49.4399 38.504 48.8708 37.936 48.4751 37.2516C48.0794 36.5672 47.8711 35.7906 47.8711 35C47.8711 34.2094 48.0794 33.4328 48.4751 32.7484C48.8708 32.064 49.4399 31.496 50.125 31.1015V26.5625C50.125 25.631 49.369 24.875 48.4375 24.875H22.5625Z" stroke="#201F1F" stroke-linecap="round" stroke-linejoin="round"/>
</svg>
